<svg width="18" height="18" viewBox="0 0 18 18" fill="none" xmlns="http://www.w3.org/2000/svg">
<g clip-path="url(#clip0_30_3087)">
<path d="M16.5938 0H1.40625C0.62925 0 0 0.63 0 1.40625V16.5938C0 17.3708 0.63 18 1.40625 18H16.5938C17.3708 18 18 17.37 18 16.5938V1.40625C18 0.62925 17.37 0 16.5938 0ZM9 14.0625C8.556 14.0625 8.123 14.0325 7.701 13.9725C7.2795 14.2695 4.84125 15.9817 4.611 16.014C4.611 16.014 4.51725 16.0507 4.437 16.0035C4.35675 15.9562 4.371 15.8317 4.371 15.8317C4.395 15.6667 5.00325 13.5683 5.115 13.182C3.05625 12.162 1.6875 10.3552 1.6875 8.29725C1.6875 5.11275 4.96125 2.53125 9 2.53125C13.0388 2.53125 16.3125 5.11275 16.3125 8.29725C16.3125 11.4817 13.0388 14.0625 9 14.0625ZM6.0375 7.40025H5.379V9.90675C5.379 10.1287 5.19 10.3095 4.95675 10.3095C4.7235 10.3095 4.53525 10.1295 4.53525 9.90675V7.40025H3.87675C3.77251 7.39255 3.67505 7.34571 3.60392 7.26913C3.53278 7.19255 3.49325 7.09189 3.49325 6.98737C3.49325 6.88285 3.53278 6.7822 3.60392 6.70562C3.67505 6.62904 3.77251 6.5822 3.87675 6.5745H6.03675C6.14099 6.5822 6.23845 6.62904 6.30958 6.70562C6.38072 6.7822 6.42025 6.88285 6.42025 6.98737C6.42025 7.09189 6.38072 7.19255 6.30958 7.26913C6.23845 7.34571 6.14099 7.39255 6.03675 7.40025M14.277 9.618C14.3106 9.66215 14.3351 9.71251 14.3492 9.76619C14.3632 9.81988 14.3665 9.8758 14.3588 9.93075C14.351 9.98554 14.3325 10.0383 14.3043 10.0859C14.2761 10.1335 14.2388 10.1751 14.1945 10.2083C14.1216 10.2636 14.0326 10.2936 13.941 10.2938C13.8755 10.294 13.8109 10.2789 13.7523 10.2497C13.6937 10.2206 13.6428 10.1781 13.6035 10.1258L12.6143 8.8155L12.468 8.96175V9.882C12.4678 9.9938 12.4234 10.101 12.3444 10.1801C12.2654 10.2592 12.1583 10.3039 12.0465 10.3043C11.9345 10.3043 11.8271 10.2598 11.7479 10.1806C11.6687 10.1014 11.6242 9.99399 11.6242 9.882V6.996C11.6288 6.88719 11.6753 6.78436 11.7539 6.70899C11.8325 6.63362 11.9372 6.59154 12.0461 6.59154C12.155 6.59154 12.2597 6.63362 12.3383 6.70899C12.417 6.78436 12.4634 6.88719 12.468 6.996V7.9035L13.6455 6.726C13.7077 6.66493 13.7916 6.63095 13.8787 6.6315C13.9837 6.6315 14.0902 6.67725 14.1697 6.75675C14.2419 6.82791 14.2858 6.92274 14.2935 7.02375C14.2973 7.07079 14.291 7.11809 14.2749 7.16247C14.2589 7.20684 14.2335 7.24726 14.2005 7.281L13.239 8.24175L14.277 9.618ZM8.0145 6.9915C7.94325 6.789 7.72725 6.5805 7.452 6.5745C7.1775 6.5805 6.9615 6.789 6.89025 6.99075L5.8815 9.6465C5.75325 10.044 5.865 10.1925 5.98125 10.2465C6.06562 10.2838 6.15674 10.3035 6.249 10.3043C6.42525 10.3043 6.5595 10.233 6.6 10.1183L6.80925 9.57075H8.0955L8.30475 10.1183C8.34525 10.233 8.4795 10.3043 8.65575 10.3043C8.74806 10.3033 8.83919 10.2834 8.9235 10.2458C9.03975 10.1925 9.1515 10.0448 9.02325 9.64575L8.0145 6.9915ZM7.03125 8.82375L7.45275 7.62675L7.8735 8.82375H7.03125ZM11.46 9.861C11.4572 9.96577 11.4132 10.0652 11.3375 10.1377C11.2618 10.2102 11.1605 10.2498 11.0558 10.248H9.70275C9.59783 10.25 9.49637 10.2105 9.4205 10.138C9.34463 10.0655 9.3005 9.9659 9.29775 9.861V6.996C9.29775 6.7635 9.49125 6.5745 9.729 6.5745C9.96675 6.5745 10.1595 6.7635 10.1595 6.996V9.47475H11.0558C11.2785 9.47475 11.4608 9.648 11.4608 9.861" fill="black"/>
</g>
<defs>
<clipPath id="clip0_30_3087">
<rect width="18" height="18" fill="white"/>
</clipPath>
</defs>
</svg>
