<svg width="20" height="20" viewBox="0 0 20 20" fill="none" xmlns="http://www.w3.org/2000/svg">
<path d="M9.89621 13.4486L11.0094 12.3186C9.90478 12.235 9.18478 11.9 8.64085 11.3561C7.17585 9.89106 7.18406 7.81535 8.63228 6.36713L11.3609 3.63856C12.8259 2.18178 14.8851 2.17356 16.3416 3.63856C17.8148 5.10321 17.798 7.17071 16.3501 8.61892L14.7094 10.2596C14.9437 10.7953 14.9941 11.4146 14.9101 11.9586L17.3626 9.50606C19.3719 7.49713 19.3884 4.65963 17.3544 2.62571C15.3205 0.591777 12.483 0.608205 10.4737 2.61713L7.61942 5.47999C5.61049 7.48892 5.59371 10.335 7.62799 12.3603C8.15514 12.8878 8.82478 13.2646 9.89621 13.4486ZM10.1055 6.55142L8.99228 7.68142C10.0973 7.77356 10.8173 8.09999 11.3612 8.64392C12.8258 10.1089 12.8176 12.1846 11.3694 13.6328L8.63228 16.3614C7.17585 17.8182 5.10835 17.8264 3.65192 16.37C2.18692 14.8968 2.19549 12.8378 3.65192 11.3811L5.29228 9.74035C5.05799 9.21321 4.99942 8.58535 5.08335 8.04142L2.63049 10.4939C0.630135 12.5028 0.61335 15.3489 2.63906 17.3743C4.67299 19.4086 7.51906 19.3918 9.51978 17.3911L12.3823 14.52C14.3912 12.5111 14.408 9.66535 12.3741 7.63963C11.8466 7.11213 11.1769 6.73535 10.1055 6.55142Z" fill="#9ca3af"/>
</svg>
