<svg width="50" height="50" viewBox="0 0 50 50" fill="none" xmlns="http://www.w3.org/2000/svg">
<g clip-path="url(#clip0_52_17602)">
<path d="M24.0008 5C25.957 5 27.5415 6.55023 27.5415 8.46416C27.5415 9.8909 26.658 11.117 25.396 11.6487L25.3576 11.6646V13.1239C25.3576 14.5326 26.4278 15.732 27.8514 15.9279L27.8947 15.9334L28.3222 15.988C30.6362 16.2744 32.4298 17.9019 32.8898 20.1386C33.3497 22.3753 32.3461 24.5575 30.3248 25.7031C29.4199 26.2128 28.434 26.5247 27.3938 26.63L27.3417 26.6351L20.9155 27.226C20.2603 27.2852 19.6422 27.4806 19.0707 27.8034C17.9044 28.4626 17.6767 29.6037 17.8533 30.4492C18.0281 31.2864 18.6811 32.2393 19.9881 32.4171L20.4554 32.4768C23.2707 32.8188 25.3984 35.1526 25.4406 37.9209L25.4413 38.0049V39.3597C26.6819 39.8961 27.5508 41.1145 27.5508 42.5283C27.5508 44.4422 25.9663 45.9925 24.0101 45.9925C22.0538 45.9925 20.4693 44.4422 20.4693 42.5283C20.4693 41.1061 21.3483 39.8799 22.6058 39.3483L22.644 39.3324V38.0049C22.644 36.5962 21.5738 35.3969 20.1502 35.201L20.1069 35.1955L19.6794 35.1408C17.3655 34.8545 15.5718 33.2269 15.1118 30.9902C14.6472 28.7535 15.6555 26.5714 17.6768 25.4258C18.5817 24.916 19.5675 24.6042 20.6078 24.4989L20.6599 24.4938L27.0862 23.9029C27.7413 23.8437 28.3593 23.6483 28.9309 23.3255C30.0972 22.6663 30.3248 21.5252 30.1483 20.6796C29.9735 19.8425 29.3205 18.8895 28.0134 18.7117L27.5461 18.652C24.7308 18.31 22.6032 15.9762 22.561 13.208L22.5603 13.1239V11.6282C21.3243 11.0873 20.46 9.87343 20.46 8.46416C20.46 6.55023 22.0446 5 24.0008 5ZM28.2571 28.1808L30.2412 30.3083C31.7178 31.897 32.5387 33.9447 32.555 36.0852L32.5552 36.1501H29.7533C29.7533 34.6829 29.2023 33.278 28.2038 32.187L28.1735 32.154L24.8 28.5353L27.4951 28.2853L27.5802 28.276C27.7821 28.2536 27.9837 28.2277 28.1826 28.1938L28.2571 28.1808ZM18.002 14.8742C18.002 16.3414 18.553 17.7463 19.5515 18.8373L19.5818 18.8702L22.9646 22.4981L20.474 22.7299L20.4 22.7366C20.1288 22.762 19.858 22.8005 19.5935 22.8519L19.5214 22.8663L17.5187 20.716C16.0422 19.1317 15.2213 17.0797 15.205 14.9391L15.2048 14.8742H18.002Z" fill="#3E58FF"/>
</g>
<defs>
<clipPath id="clip0_52_17602">
<rect width="18" height="41" fill="white" transform="translate(15 5)"/>
</clipPath>
</defs>
</svg>
