<svg width="61" height="54" viewBox="0 0 61 54" fill="none" xmlns="http://www.w3.org/2000/svg">
<g clip-path="url(#clip0_52_17402)">
<path d="M50.1542 17.4846C49.505 17.2633 48.8503 17.0582 48.1907 16.8695C48.3015 16.4195 48.4035 15.975 48.494 15.5382C49.9804 8.36641 49.0087 2.58864 45.6897 0.686327C42.5075 -1.13736 37.3032 0.764248 32.0472 5.31091C31.5291 5.75978 31.0226 6.22162 30.5281 6.69596C30.1971 6.38055 29.8601 6.07126 29.5176 5.76825C24.009 0.906827 18.4875 -1.14209 15.1721 0.765669C11.9927 2.59504 11.0512 8.02654 12.3894 14.8234C12.5226 15.4966 12.6729 16.1663 12.8403 16.8319C12.0587 17.0526 11.3045 17.2875 10.5828 17.5376C4.12441 19.7758 0 23.2832 0 26.9213C0 30.6788 4.42774 34.4477 11.1544 36.733C11.6998 36.9175 12.2497 37.0884 12.8036 37.2457C12.6237 37.9626 12.464 38.6843 12.3246 39.41C11.0489 46.089 12.0451 51.3921 15.2159 53.2099C18.4909 55.0871 23.9875 53.1577 29.3396 48.5074C29.7735 48.1293 30.198 47.7405 30.6125 47.3414C31.148 47.855 31.6979 48.3537 32.2614 48.8368C37.4459 53.271 42.5661 55.0615 45.7338 53.2387C49.0056 51.3561 50.0691 45.6591 48.6885 38.7279C48.5797 38.1849 48.4578 37.6446 48.3227 37.1074C48.7087 36.9937 49.0876 36.8767 49.4569 36.755C56.45 34.4522 61 30.729 61 26.9213C61 23.2699 56.7424 19.7389 50.1542 17.4846ZM48.6375 34.2966C48.3036 34.4062 47.962 34.5124 47.6129 34.6151C46.8408 32.1859 45.7991 29.6029 44.524 26.9339C45.7407 24.3286 46.7424 21.7785 47.4928 19.3651C48.1168 19.5446 48.7223 19.7339 49.3061 19.9335C54.951 21.8652 58.3942 24.7208 58.3942 26.9213C58.3942 29.2651 54.6755 32.3078 48.6375 34.2966ZM46.1322 39.231C46.7427 42.2957 46.8297 45.0667 46.4253 47.2331C46.0621 49.1797 45.3316 50.4774 44.428 50.9973C42.5058 52.1033 38.3947 50.6657 33.961 46.8734C33.4369 46.4242 32.9255 45.9605 32.4272 45.4831C34.1462 43.6147 35.8639 41.4426 37.5405 39.0301C40.4895 38.7701 43.2754 38.3447 45.8019 37.7642C45.9266 38.2635 46.0367 38.7524 46.1322 39.231ZM20.7962 50.8061C18.9181 51.4653 17.4222 51.4842 16.5179 50.966C14.5938 49.863 13.7939 45.6049 14.885 39.8932C15.0147 39.2182 15.1632 38.547 15.3303 37.8802C17.8289 38.4297 20.5946 38.8248 23.5505 39.063C25.2385 41.4236 27.0058 43.5934 28.787 45.4933C28.4085 45.8573 28.021 46.2121 27.6249 46.5572C25.2581 48.6135 22.8864 50.0724 20.7962 50.8061ZM11.9975 34.2821C9.023 33.2715 6.56655 31.9582 4.88286 30.5251C3.36977 29.2374 2.60608 27.9587 2.60608 26.9213C2.60608 24.7135 5.91748 21.8974 11.4406 19.9835C12.1109 19.7514 12.8124 19.5323 13.5403 19.3267C14.3038 21.7946 15.305 24.375 16.5134 26.9843C15.2893 29.6322 14.2738 32.2538 13.5029 34.7509C12.9973 34.6069 12.4954 34.4506 11.9975 34.2821ZM14.9469 14.3258C13.8005 8.50259 14.5618 4.10988 16.4779 3.00738C18.5185 1.83312 23.0311 3.50735 27.7874 7.70514C28.0976 7.97948 28.4027 8.2594 28.7026 8.54475C26.9303 10.4364 25.1792 12.59 23.5062 14.9366C20.6373 15.201 17.8911 15.6254 15.3663 16.194C15.2107 15.575 15.0709 14.9519 14.9469 14.3258ZM41.2596 20.7843C40.6632 19.7604 40.0447 18.7494 39.4046 17.752C41.3509 17.9966 43.2156 18.3214 44.9668 18.7183C44.4411 20.3932 43.7858 22.1442 43.0145 23.9395C42.4508 22.8762 41.8657 21.8243 41.2596 20.7843ZM30.5293 10.3961C31.7312 11.6905 32.935 13.1355 34.119 14.7034C31.7171 14.5906 29.3113 14.5901 26.9093 14.7019C28.0946 13.1485 29.3086 11.7054 30.5293 10.3961ZM19.7302 20.8018C19.1317 21.8334 18.5575 22.8788 18.0081 23.9371C17.2494 22.1482 16.6001 20.3892 16.0699 18.6906C17.8103 18.3036 19.6663 17.9872 21.6002 17.747C20.9529 18.7505 20.3294 19.7692 19.7302 20.8018ZM21.6557 36.2797C19.6577 36.058 17.7739 35.7579 16.0339 35.3813C16.5725 33.6524 17.2361 31.8559 18.0112 30.0287C18.5628 31.0878 19.1393 32.1338 19.7404 33.1659C20.3585 34.227 20.9985 35.2662 21.6557 36.2797ZM30.6013 43.6289C29.366 42.3045 28.1341 40.8391 26.931 39.2632C28.0991 39.3086 29.2898 39.3319 30.5 39.3319C31.7434 39.3319 32.9724 39.3041 34.1822 39.2506C32.9943 40.855 31.7951 42.3225 30.6013 43.6289ZM43.0391 29.9354C43.8545 31.7827 44.5417 33.5697 45.0873 35.2691C43.3188 35.6703 41.4092 35.9933 39.3972 36.2332C40.0419 35.2173 40.6663 34.1888 41.2698 33.1481C41.8835 32.0904 42.4734 31.0192 43.0391 29.9354ZM39.0126 31.854C38.0885 33.4495 37.1126 35.0146 36.0863 36.5471C34.2271 36.678 32.3638 36.743 30.5 36.742C28.6016 36.742 26.7552 36.6832 24.9771 36.5686C23.9239 35.0398 22.9293 33.4719 21.9955 31.8682C21.0659 30.2732 20.198 28.6436 19.393 26.9829C20.1959 25.3219 21.0615 23.6915 21.9879 22.0952L21.9876 22.0954C22.9135 20.4987 23.9002 18.9375 24.9454 17.4152C26.7595 17.2788 28.6197 17.2077 30.4998 17.2077C32.3884 17.2077 34.2513 17.2795 36.0648 17.4169C37.0995 18.9368 38.0799 20.4927 39.004 22.0815C39.9333 23.6743 40.8104 25.2967 41.6337 26.9462C40.8188 28.6125 39.9445 30.2495 39.0126 31.854ZM44.3882 2.92993C46.4308 4.10088 47.2252 8.8228 45.9418 15.015C45.8595 15.4104 45.7682 15.8122 45.6678 16.2206C43.1368 15.6398 40.3887 15.2081 37.5114 14.9397C35.8354 12.5673 34.0985 10.4104 32.355 8.54309C32.812 8.1053 33.2798 7.67886 33.758 7.26414C38.2615 3.3688 42.4705 1.83075 44.3882 2.92993ZM30.5 21.5071C33.5083 21.5071 35.9471 23.9312 35.9471 26.9213C35.9471 29.9115 33.5083 32.3355 30.5 32.3355C27.4917 32.3355 25.0529 29.9115 25.0529 26.9213C25.0529 23.9312 27.4917 21.5071 30.5 21.5071Z" fill="#00D8FF"/>
</g>
<defs>
<clipPath id="clip0_52_17402">
<rect width="61" height="54" fill="white"/>
</clipPath>
</defs>
</svg>
