<svg width="63" height="57" viewBox="0 0 63 57" fill="none" xmlns="http://www.w3.org/2000/svg">
<g clip-path="url(#clip0_52_17470)">
<path d="M38.8788 35.312L37.6705 37.4252C37.4915 37.7379 37.234 37.9976 36.9237 38.1782C36.6134 38.3588 36.2614 38.4539 35.903 38.4539H26.6455C26.2871 38.4539 25.9351 38.3588 25.6248 38.1782C25.3145 37.9976 25.0569 37.7379 24.878 37.4252L23.6695 35.312H38.8788ZM42.2618 29.3964L40.1312 33.1222H22.4173L20.2866 29.3964H42.2618ZM40.2094 23.6116L42.2653 27.2066H20.2832L22.3391 23.6116H40.2094ZM35.9028 18.1431C36.2612 18.1431 36.6133 18.2381 36.9236 18.4187C37.2339 18.5993 37.4915 18.8591 37.6705 19.1718L38.957 21.4218H23.5914L24.8783 19.1718C25.0572 18.8591 25.3148 18.5994 25.625 18.4188C25.9353 18.2382 26.2873 18.1431 26.6457 18.1431H35.9028Z" fill="#00435B"/>
<path d="M13.1717 17.1623C12.1462 12.1547 11.926 8.31389 12.5889 5.5251C12.9832 3.8664 13.7037 2.51327 14.7998 1.53683C15.957 0.506125 17.4198 0.000312383 19.0637 0.000312383C21.7751 0.000312383 24.6259 1.24564 27.672 3.61114C28.9148 4.57617 30.2043 5.73922 31.5436 7.10103C31.6504 6.96299 31.7707 6.83263 31.9051 6.71194C35.6915 3.31424 38.8794 1.20276 41.6061 0.388904C43.2274 -0.0953485 44.7495 -0.141444 46.1355 0.328434C47.5987 0.824086 48.7645 1.84934 49.5872 3.285C50.9446 5.65446 51.3024 8.7679 50.7965 12.6124C50.5902 14.1794 50.2376 15.8862 49.7393 17.7357C49.9273 17.7585 50.1158 17.8007 50.3023 17.8629C55.1063 19.4663 58.5083 21.1902 60.5679 23.1607C61.7934 24.3329 62.5935 25.6379 62.8829 27.0827C63.188 28.6076 62.8903 30.137 62.0688 31.5716C60.7138 33.9379 58.2223 35.8037 54.6732 37.2818C53.2483 37.8753 51.6356 38.4129 49.834 38.8964C49.9162 39.0832 49.9802 39.2817 50.0227 39.4899C51.0482 44.4975 51.2682 48.3383 50.6055 51.1271C50.2113 52.7858 49.4904 54.1389 48.3943 55.1153C47.2375 56.1461 45.7744 56.6519 44.1308 56.6519C41.4191 56.6519 38.5686 55.4065 35.5224 53.041C34.2664 52.0656 32.9625 50.8882 31.6078 49.5075C31.4653 49.732 31.2927 49.9357 31.0949 50.1127C27.3085 53.5109 24.1206 55.6219 21.3939 56.436C19.7727 56.9203 18.2506 56.9664 16.8646 56.4965C15.4013 56.0008 14.2355 54.9756 13.4129 53.5399C12.0554 51.1705 11.6976 48.057 12.2036 44.2125C12.4174 42.589 12.7883 40.815 13.3154 38.8879C13.1053 38.8665 12.8981 38.8219 12.6977 38.7549C7.89371 37.1514 4.49171 35.4275 2.43216 33.4571C1.20661 32.2849 0.406558 30.9798 0.117152 29.535C-0.188004 28.0101 0.109769 26.4805 0.93123 25.0459C2.28622 22.6799 4.77767 20.8137 8.32684 19.336C9.7943 18.7246 11.4606 18.1729 13.3275 17.6782C13.2601 17.5114 13.208 17.3387 13.1717 17.1623Z" fill="#002B3B"/>
<path d="M46.6703 39.9826C46.8996 39.9416 47.1357 39.9911 47.3297 40.1208C47.5238 40.2504 47.6608 40.4503 47.7125 40.679L47.7181 40.7067L47.7691 40.9731C49.4204 49.7156 48.2572 54.0868 44.2795 54.0868C40.3879 54.0868 35.4339 50.3568 29.4174 42.8967C29.3105 42.7642 29.2427 42.604 29.2216 42.4346C29.2006 42.2651 29.2272 42.0931 29.2984 41.9381C29.3696 41.7831 29.4825 41.6513 29.6243 41.5577C29.7662 41.4641 29.9312 41.4124 30.1008 41.4086H30.1288L30.4458 41.4108C32.9776 41.4247 35.4389 41.3358 37.8296 41.1441C40.6515 40.9178 43.5984 40.5306 46.6703 39.9826ZM19.3536 33.374L19.3689 33.4001L19.5279 33.6794C20.8018 35.9098 22.1291 38.0268 23.5097 40.0304C25.1358 42.3897 26.9643 44.7782 28.9951 47.196C29.1458 47.3755 29.222 47.6065 29.2079 47.8411C29.1937 48.0757 29.0903 48.2958 28.919 48.4555L28.8962 48.4761L28.6919 48.6533C21.9719 54.4517 17.6042 55.6092 15.5889 52.1258C13.616 48.7164 14.3313 42.5168 17.7346 33.5272C17.7948 33.3679 17.8982 33.2288 18.0329 33.1256C18.1676 33.0225 18.3283 32.9593 18.4968 32.9434C18.6653 32.9275 18.8349 32.9593 18.9863 33.0355C19.1377 33.1116 19.265 33.2288 19.3536 33.374ZM50.0802 20.4737L50.1077 20.4829L50.3607 20.5706C58.6552 23.4764 61.8065 26.6697 59.8146 30.1503C57.8666 33.5546 52.203 36.0332 42.8241 37.5861C42.6541 37.6143 42.4797 37.5931 42.3212 37.525C42.1628 37.4569 42.0269 37.3448 41.9294 37.2017C41.832 37.0587 41.777 36.8906 41.771 36.7172C41.7651 36.5438 41.8082 36.3723 41.8956 36.2228C43.2389 33.9216 44.4488 31.632 45.5252 29.3538C46.7458 26.7701 47.8914 23.997 48.9619 21.0343C49.0397 20.8189 49.195 20.6409 49.397 20.5356C49.5991 20.4302 49.8331 20.4052 50.0526 20.4655L50.0802 20.4737ZM20.781 19.0108C20.8836 19.0715 20.9734 19.152 21.0452 19.2476C21.1169 19.3433 21.1693 19.4523 21.1992 19.5683C21.2291 19.6843 21.2361 19.8052 21.2196 19.9239C21.2032 20.0426 21.1637 20.157 21.1034 20.2603C19.7597 22.5613 18.5497 24.851 17.4735 27.1293C16.2528 29.7128 15.1073 32.486 14.0368 35.4488C13.9573 35.6688 13.7969 35.8497 13.5888 35.954C13.3807 36.0583 13.1407 36.0782 12.9185 36.0094L12.891 36.0002L12.638 35.9123C4.34347 33.0066 1.19216 29.8134 3.18404 26.3328C5.13212 22.9285 10.7956 20.4498 20.1746 18.8968C20.3838 18.8621 20.5984 18.9025 20.781 19.0108ZM47.4098 4.69906C49.3826 8.10866 48.6674 14.3083 45.2641 23.2979C45.2038 23.4572 45.1005 23.5963 44.9658 23.6995C44.8311 23.8026 44.6704 23.8658 44.5019 23.8817C44.3334 23.8976 44.1638 23.8658 44.0124 23.7897C43.861 23.7135 43.7337 23.5963 43.6451 23.4511L43.6298 23.4251L43.4708 23.1457C42.1969 20.9153 40.8696 18.7983 39.489 16.7947C37.8628 14.4354 36.0344 12.0469 34.0036 9.62907C33.8529 9.44964 33.7766 9.21858 33.7908 8.98398C33.805 8.74939 33.9084 8.52933 34.0796 8.36962L34.1025 8.34905L34.3068 8.17185C41.0268 2.37355 45.3944 1.21595 47.4098 4.69906ZM19.0593 2.62451C22.951 2.62451 27.9051 6.35446 33.9214 13.8144C34.0283 13.9469 34.0961 14.1071 34.1171 14.2765C34.1382 14.446 34.1116 14.618 34.0404 14.773C33.9692 14.928 33.8563 15.0598 33.7145 15.1534C33.5726 15.247 33.4075 15.2987 33.238 15.3026H33.2099L32.893 15.3006C30.3613 15.2867 27.9001 15.3756 25.5094 15.5672C22.6872 15.7936 19.7402 16.1808 16.6685 16.7288C16.4393 16.7696 16.2032 16.7201 16.0092 16.5905C15.8152 16.4608 15.6782 16.261 15.6265 16.0324L15.6206 16.0044L15.5697 15.7382C13.9182 6.99575 15.0814 2.62451 19.0593 2.62451Z" fill="#FF4154"/>
<path d="M27.3896 18.2573H35.1602C35.7185 18.2573 36.267 18.4057 36.7501 18.6874C37.2332 18.9692 37.634 19.3743 37.9118 19.862L41.8136 26.7084C42.0895 27.1924 42.2347 27.7407 42.2347 28.2987C42.2347 28.8568 42.0895 29.4051 41.8136 29.889L37.9118 36.7355C37.634 37.2231 37.2332 37.6283 36.7501 37.9101C36.267 38.1918 35.7185 38.3402 35.1602 38.3402H27.3896C26.2531 38.3402 25.2035 37.728 24.6378 36.7355L20.7364 29.889C20.4606 29.4051 20.3154 28.8568 20.3154 28.2987C20.3154 27.7407 20.4606 27.1924 20.7364 26.7084L24.638 19.862C24.9159 19.3743 25.3167 18.9691 25.7998 18.6873C26.283 18.4056 26.8312 18.2573 27.3896 18.2573ZM33.976 20.3237C35.113 20.3237 36.1633 20.9366 36.7286 21.9299L39.4494 26.7099C39.7247 27.1935 39.8696 27.7413 39.8696 28.2987C39.8696 28.8562 39.7247 29.4039 39.4494 29.8876L36.7286 34.6676C36.4508 35.1557 36.05 35.5612 35.5667 35.8432C35.0833 36.1252 34.5346 36.2736 33.976 36.2735H28.5743C27.4373 36.2735 26.387 35.6609 25.8217 34.6676L23.1009 29.8876C22.8256 29.4039 22.6807 28.8562 22.6807 28.2987C22.6807 27.7413 22.8256 27.1935 23.1009 26.7099L25.8217 21.9299C26.0995 21.4419 26.5003 21.0364 26.9835 20.7544C27.4668 20.4724 28.0155 20.3239 28.574 20.3239L33.976 20.3237ZM32.6995 22.5839H29.8508C29.2927 22.5838 28.7444 22.732 28.2614 23.0135C27.7784 23.2951 27.3777 23.7 27.0997 24.1873L25.662 26.707C25.3856 27.1913 25.2401 27.7401 25.2401 28.2987C25.2401 28.8574 25.3856 29.4062 25.662 29.8905L27.0997 32.4104C27.3777 32.8978 27.7784 33.3027 28.2614 33.5842C28.7444 33.8657 29.2927 34.0139 29.8508 34.0139H32.6995C33.8355 34.0139 34.8849 33.4022 35.4506 32.4104L36.8883 29.8905C37.1647 29.4062 37.3102 28.8574 37.3102 28.2987C37.3102 27.7401 37.1647 27.1913 36.8883 26.707L35.4506 24.1871C35.1727 23.6997 34.7719 23.2948 34.2889 23.0133C33.8059 22.7318 33.2576 22.5838 32.6995 22.5839ZM31.4706 24.7469C32.6055 24.7469 33.6541 25.3575 34.2202 26.3479L34.4242 26.7047C34.7013 27.1895 34.8472 27.7391 34.8472 28.2985C34.8472 28.8579 34.7013 29.4075 34.4242 29.8923L34.2202 30.2491C33.942 30.7358 33.5414 31.1401 33.0587 31.4211C32.5759 31.7022 32.0282 31.8501 31.4706 31.8501H31.0798C30.5222 31.8501 29.9744 31.7022 29.4917 31.4211C29.0089 31.1401 28.6083 30.7358 28.3302 30.2491L28.1261 29.8923C27.849 29.4075 27.7031 28.8579 27.7031 28.2985C27.7031 27.7391 27.849 27.1895 28.1261 26.7047L28.3302 26.3479C28.6083 25.8612 29.0089 25.4569 29.4917 25.1759C29.9744 24.8948 30.5222 24.7468 31.0798 24.7469H31.4706ZM31.2757 26.878C31.0278 26.8779 30.7844 26.9435 30.5697 27.0682C30.355 27.1928 30.1766 27.3722 30.0526 27.5882C29.9287 27.8042 29.8635 28.0491 29.8635 28.2985C29.8635 28.5479 29.9287 28.7928 30.0526 29.0088C30.1765 29.2249 30.3548 29.4043 30.5694 29.529C30.784 29.6538 31.0275 29.7195 31.2753 29.7195C31.5231 29.7195 31.7665 29.6538 31.9812 29.529C32.1958 29.4043 32.374 29.2249 32.498 29.0088C32.6219 28.7928 32.6871 28.5479 32.6871 28.2985C32.6871 28.0491 32.6219 27.8042 32.498 27.5882C32.374 27.3723 32.1958 27.193 31.9812 27.0684C31.7667 26.9437 31.5233 26.878 31.2757 26.878ZM19.8301 28.2985H22.3698Z" fill="#FFD94C"/>
</g>
<defs>
<clipPath id="clip0_52_17470">
<rect width="63" height="57" fill="white"/>
</clipPath>
</defs>
</svg>
