<svg width="57" height="57" viewBox="0 0 57 57" fill="none" xmlns="http://www.w3.org/2000/svg">
<g clip-path="url(#clip0_52_17464)">
<path d="M43.6406 0H13.3594C5.9812 0 0 5.9812 0 13.3594V43.6406C0 51.0188 5.9812 57 13.3594 57H43.6406C51.0188 57 57 51.0188 57 43.6406V13.3594C57 5.9812 51.0188 0 43.6406 0Z" fill="#764ABC"/>
<path d="M37.0899 36.8717C38.7333 36.7016 39.98 35.2848 39.9232 33.5848C39.8666 31.8849 38.4499 30.5249 36.7499 30.5249H36.6365C34.8798 30.5814 33.5198 32.0547 33.5764 33.8115C33.6331 34.6616 33.9731 35.3981 34.483 35.9083C32.5564 39.705 29.6097 42.4817 25.1896 44.8051C22.1862 46.3918 19.0694 46.9585 15.9527 46.5619C13.4026 46.2219 11.4194 45.0884 10.1725 43.2185C8.3592 40.4418 8.18932 37.4383 9.71919 34.4349C10.796 32.2814 12.4959 30.6948 13.5727 29.9014C13.346 29.1649 13.006 27.918 12.8359 27.0114C4.61924 32.9616 5.46912 41.0084 7.96243 44.8051C9.83274 47.6384 13.6293 49.3952 17.8228 49.3952C18.9561 49.3952 20.0894 49.2819 21.2227 48.9984C28.4764 47.5819 33.9731 43.2751 37.0899 36.8717Z" fill="white"/>
<path d="M47.0624 29.8448C42.7558 24.8012 36.409 22.0247 29.1555 22.0247H28.2488C27.7387 21.0045 26.662 20.3245 25.4721 20.3245H25.3588C23.602 20.3812 22.242 21.8546 22.2986 23.6113C22.3554 25.3113 23.7719 26.6713 25.4721 26.6713H25.5854C26.8321 26.6147 27.9088 25.8214 28.3622 24.7446H29.3822C33.6888 24.7446 37.769 25.9913 41.4524 28.428C44.2857 30.2981 46.3259 32.7349 47.4592 35.6815C48.4226 38.0615 48.3658 40.3849 47.3458 42.3683C45.7592 45.3717 43.0958 47.0152 39.5823 47.0152C37.3156 47.0152 35.1623 46.3352 34.0288 45.8251C33.4056 46.3917 32.2722 47.2984 31.4789 47.865C33.9154 48.9984 36.409 49.6218 38.7889 49.6218C44.2291 49.6218 48.2525 46.6184 49.7826 43.615C51.426 40.3283 51.3127 34.6615 47.0624 29.8448Z" fill="white"/>
<path d="M18.2756 37.8351C18.3324 39.5351 19.7489 40.895 21.4491 40.895H21.5624C23.319 40.8383 24.6792 39.365 24.6224 37.6082C24.5659 35.9082 23.1491 34.5482 21.4491 34.5482H21.3356C21.2225 34.5482 21.0523 34.5482 20.9392 34.605C18.6156 30.7515 17.6524 26.558 17.9924 22.0247C18.219 18.6247 19.3524 15.6779 21.3358 13.2409C22.979 11.1444 26.1525 10.1244 28.3058 10.0676C34.3126 9.95429 36.8627 17.4344 37.0326 20.4381C37.7694 20.6079 39.016 21.0045 39.8661 21.2879C39.1861 12.108 33.5193 7.34766 28.0792 7.34766C22.979 7.34766 18.2756 11.0311 16.4055 16.4712C13.7989 23.7247 15.4989 30.6947 18.6721 36.1917C18.3889 36.5882 18.2188 37.2116 18.2756 37.8351Z" fill="white"/>
</g>
<defs>
<clipPath id="clip0_52_17464">
<rect width="57" height="57" fill="white"/>
</clipPath>
</defs>
</svg>
