<svg width="57" height="57" viewBox="0 0 57 57" fill="none" xmlns="http://www.w3.org/2000/svg">
<g clip-path="url(#clip0_52_17417)">
<path d="M43.6406 0H13.3594C5.9812 0 0 5.9812 0 13.3594V43.6406C0 51.0188 5.9812 57 13.3594 57H43.6406C51.0188 57 57 51.0188 57 43.6406V13.3594C57 5.9812 51.0188 0 43.6406 0Z" fill="#007ACC"/>
<path d="M12.604 28.689L12.5859 31.0233H20.0048V52.1042H25.2526V31.0233H32.6715V28.7342C32.6715 27.4675 32.6446 26.409 32.6083 26.3818C32.5811 26.3458 28.0663 26.3275 22.5926 26.3366L12.6311 26.3638L12.604 28.689ZM45.9926 26.2975C47.4401 26.6595 48.544 27.3019 49.5573 28.3512C50.0821 28.9123 50.8601 29.9348 50.9236 30.179C50.9416 30.2514 48.4625 31.9162 46.9607 32.848C46.9064 32.8843 46.6891 32.6489 46.4448 32.2871C45.7121 31.2195 44.943 30.7579 43.7667 30.6767C42.0387 30.5589 40.9258 31.4637 40.935 32.9747C40.935 33.418 40.9982 33.6803 41.1792 34.0423C41.5591 34.8294 42.2649 35.2999 44.4817 36.2589C48.5621 38.0143 50.3081 39.1723 51.394 40.8189C52.6064 42.6556 52.8778 45.5871 52.0544 47.7675C51.1498 50.1379 48.9058 51.7484 45.7481 52.2823C44.7711 52.4542 42.4548 52.4271 41.4054 52.2371C39.1163 51.8299 36.945 50.699 35.6059 49.2152C35.0811 48.6361 34.0587 47.1252 34.1221 47.0165C34.1491 46.9804 34.3844 46.8357 34.6467 46.6819C34.9001 46.5371 35.8593 45.9852 36.764 45.4604L38.4016 44.5103L38.7454 45.0171C39.225 45.7498 40.2744 46.7542 40.9078 47.0889C42.7262 48.0481 45.2236 47.9123 46.454 46.8085C46.9788 46.3289 47.1958 45.8313 47.1958 45.0985C47.1958 44.4379 47.1144 44.1485 46.7706 43.6508C46.3273 43.0176 45.4226 42.4837 42.8529 41.3708C39.9125 40.1041 38.6458 39.3171 37.4878 38.0684C36.8183 37.3448 36.1848 36.1865 35.9225 35.2184C35.7054 34.4133 35.6511 32.3956 35.823 31.5813C36.4291 28.7404 38.5735 26.759 41.6677 26.1708C42.6721 25.9808 45.0062 26.0532 45.9926 26.2975Z" fill="white"/>
</g>
<defs>
<clipPath id="clip0_52_17417">
<rect width="57" height="57" fill="white"/>
</clipPath>
</defs>
</svg>
