<svg width="57" height="57" viewBox="0 0 57 57" fill="none" xmlns="http://www.w3.org/2000/svg">
<g clip-path="url(#clip0_54_268)">
<path d="M43.6406 0H13.3594C5.9812 0 0 5.9812 0 13.3594V43.6406C0 51.0188 5.9812 57 13.3594 57H43.6406C51.0188 57 57 51.0188 57 43.6406V13.3594C57 5.9812 51.0188 0 43.6406 0Z" fill="url(#paint0_linear_54_268)"/>
<path d="M2.55673 28.7403L13.7572 33.2789V36.456L0.498047 30.3127V28.4486L2.55673 28.7403ZM13.7572 25.0123L2.57298 29.6155L0.49827 29.8426V27.9623L13.757 21.8352L13.7572 25.0123ZM53.7418 29.3886L42.2171 24.8988V21.8027L56.0597 27.9298V29.8264L53.7418 29.3886ZM42.2171 33.3437L53.7743 28.7565L56.0597 28.4161V30.2964L42.2171 36.4397V33.3437Z" fill="white"/>
<path fill-rule="evenodd" clip-rule="evenodd" d="M39.2054 13.604C39.1413 14.6207 38.6833 15.6823 38.8109 16.6707C39.6109 18.0855 41.3716 18.311 42.8243 18.4081C43.8307 18.588 43.818 17.9216 43.7505 17.173L43.7627 13.5829C42.2436 13.5885 40.7239 13.568 39.2054 13.604ZM27.2263 16.4474C24.753 16.8673 22.2459 18.0492 20.1884 19.4719C18.5322 20.7609 21.61 22.01 22.7266 22.2188C24.9732 22.2462 26.9658 20.7308 28.4416 19.158C28.9234 18.4967 29.5252 17.4843 28.9198 16.7177C28.4576 16.3169 27.7854 16.414 27.2263 16.4474ZM32.4892 20.0446C30.4557 20.432 28.5208 21.2701 26.8088 22.437C25.5537 22.8311 24.5192 24.2092 26.0745 24.8996C27.7077 26.201 29.6005 25.8822 31.1045 25.0036C32.4819 24.1849 33.9697 23.1747 34.6069 21.6335C35.2087 19.9451 33.6559 19.8825 32.4892 20.0446ZM38.258 26.5869C37.8793 28.1687 36.2864 28.8878 35.439 30.1412C34.7461 31.0554 35.0669 32.1324 35.8558 32.852C36.2399 33.6485 36.9132 34.0935 37.6352 33.4018C39.4949 32.1375 40.0092 29.6749 39.9319 27.5412C40.0693 26.6599 39.0582 27.4566 38.258 26.5869ZM31.1813 29.5578C28.7119 29.9804 26.2419 31.1836 24.1835 32.6042C22.5855 33.8914 25.5951 35.0933 26.7209 35.2839C29.0091 35.2872 31.0502 33.8126 32.497 32.1377C33.0002 31.4727 33.6101 30.181 32.6137 29.6522C32.1681 29.4634 31.6509 29.5188 31.1813 29.5578Z" fill="#B956A6"/>
<path fill-rule="evenodd" clip-rule="evenodd" d="M20.1876 19.4719C18.2883 20.2319 16.4563 21.1546 14.647 22.1209C14.3108 23.3711 14.5804 24.9192 14.4934 26.2901C14.4867 31.9269 14.4898 37.5639 14.4889 43.2006H18.6793C19.5254 42.404 20.5853 41.8208 21.5044 41.0974C25.0433 38.5594 28.5811 36.0115 32.1153 33.4806C32.3753 33.5975 32.2088 31.9507 31.6384 33.0945C30.2866 34.3665 28.4924 35.4128 26.5934 35.3106C25.5158 34.9561 23.7786 34.3547 23.7677 33.0342C24.5263 32.1411 22.3681 33.5017 21.7776 33.6966C19.8578 34.6184 17.9835 35.6477 16.0598 36.5523C16.522 36.0558 17.3868 35.5929 18 35.1004C22.3803 31.9561 26.7595 28.7995 31.1503 25.6576C31.9948 25.0646 32.8106 24.4178 33.6812 23.8636C33.7607 24.1707 33.9099 22.3956 33.2624 23.4884C31.9425 24.7968 30.1621 25.7707 28.2845 25.784C27.2284 25.4634 24.9792 24.6968 25.4799 23.3332C25.7242 22.8548 23.2115 24.3532 24.3216 23.5083C25.5033 22.6448 26.6943 21.7967 27.885 20.9421C28.4864 20.8969 28.3584 18.663 27.5413 20.1041C26.1686 21.3102 24.3651 22.4137 22.4745 22.1521C21.4124 21.8463 20.1382 21.2543 19.7521 20.1437C19.6243 19.877 20.4672 19.4613 20.1876 19.4719ZM28.056 20.8509C28.2469 20.7409 27.9507 21.1521 28.056 20.8509Z" fill="#FCCC44"/>
<path fill-rule="evenodd" clip-rule="evenodd" d="M40.0562 17.9795C39.4633 20.8108 38.8151 23.7741 38.2578 26.5867C39.8592 28.6049 40.0143 25.3118 40.2944 24.3806C40.7471 22.4344 41.2833 20.9649 41.34 18.9498C41.4603 18.262 40.652 17.8457 40.0562 17.9795ZM41.8933 20.1996C41.9664 20.2542 41.8432 20.4897 41.8933 20.1996ZM40.0253 26.5484C40.1023 26.7143 40.1023 26.3823 40.0253 26.5484Z" fill="#62777F"/>
<path fill-rule="evenodd" clip-rule="evenodd" d="M41.1068 18.3001C41.6064 21.1061 39.9514 24.5149 39.4102 27.1605C40.6392 26.2561 41.5888 22.1525 41.8315 20.5463C41.8941 20.3626 41.9711 19.9004 41.9878 19.8837C42.0651 19.4938 42.785 18.8332 42.8244 18.4081C43.2434 18.1124 40.7648 18.065 41.1068 18.3001ZM40.0877 26.5484C40.0104 26.7143 40.0104 26.3823 40.0877 26.5484Z" fill="#4E5E67"/>
<path fill-rule="evenodd" clip-rule="evenodd" d="M20.2301 19.5187C19.5372 20.2125 19.7972 20.0431 20.3129 19.4662L20.2301 19.5187ZM27.7247 19.8623C26.922 21.0684 24.0275 22.0771 23.663 22.1552C25.4041 21.829 27.0271 20.7458 28.1691 19.4771C27.9876 19.5579 27.8799 19.7478 27.7247 19.8623ZM19.754 20.2539C20.1866 21.2942 21.7597 21.9853 22.5241 22.1465C21.4805 21.8103 20.2521 21.214 19.754 20.2539ZM27.9945 20.8556C27.7761 21.1134 26.9981 21.499 26.588 21.8776C25.7083 22.5264 24.7983 23.1293 23.9286 23.7944C24.4823 23.7706 26.1051 22.5584 25.2732 23.7884C25.9782 25.0016 27.5129 25.8453 28.9123 25.7682C30.7604 25.4781 32.4646 24.4564 33.6896 23.0354C32.2025 24.5069 30.2365 25.8918 28.0609 25.701C27.0079 25.4579 24.1308 23.9716 26.0554 22.9298C26.7341 22.3716 27.9041 22.0793 28.0366 21.0983C28.0088 20.9758 28.237 20.8562 27.9945 20.8556ZM22.7267 22.2189C23.427 22.3104 23.427 22.1276 22.7267 22.2189ZM33.6375 23.8944C30.859 25.8301 28.1208 27.8416 25.3663 29.8121C22.2447 32.0463 19.1364 34.2886 16.0156 36.521C17.189 36.1253 18.3646 35.3527 19.5303 34.819C21.1356 33.9698 22.8282 33.2989 24.3303 32.2674C27.3001 30.5191 30.4409 28.8534 32.7251 26.1786C33.2236 25.5939 33.7235 24.6527 33.7457 24.0197C33.6738 24.04 33.7284 23.7666 33.6375 23.8944ZM24.1835 32.604C23.6837 33.1689 23.4806 33.5726 23.9994 32.8543C23.9903 32.9376 24.4205 32.4083 24.1835 32.604ZM31.7886 32.8743C30.4718 34.2628 28.5242 35.2643 26.6969 35.3318C28.8095 35.3471 30.7154 34.0931 32.1466 32.6138C32.0527 32.5003 31.8623 32.8783 31.7886 32.8743ZM32.1909 33.3107C27.767 36.5312 23.1903 39.8717 18.7514 43.0807C19.4505 43.3 20.9733 43.4028 21.6682 42.5075C23.1466 41.4873 24.8088 40.7372 26.2921 39.7032C28.4401 38.3094 30.7399 36.7859 31.9598 34.4434C32.0179 34.1292 32.4497 33.5641 32.1909 33.3107ZM23.7716 33.5151C23.9769 34.3817 26.5433 35.3763 26.2649 35.1859C25.3186 34.8542 24.3799 34.3372 23.7716 33.5151Z" fill="#DC9624"/>
</g>
<defs>
<linearGradient id="paint0_linear_54_268" x1="0" y1="57" x2="57" y2="0" gradientUnits="userSpaceOnUse">
<stop stop-color="#DB7093"/>
<stop offset="1" stop-color="#F3B661"/>
</linearGradient>
<clipPath id="clip0_54_268">
<rect width="57" height="57" fill="white"/>
</clipPath>
</defs>
</svg>
