<svg width="16" height="16" viewBox="0 0 16 16" fill="none" xmlns="http://www.w3.org/2000/svg">
<path d="M14.5 4.389V11.611C14.4997 12.3771 14.1953 13.1118 13.6535 13.6535C13.1118 14.1953 12.3771 14.4997 11.611 14.5H4.39C3.6237 14.5 2.88877 14.1957 2.34681 13.6539C1.80486 13.1121 1.50027 12.3773 1.5 11.611V4.39C1.5 3.6237 1.80434 2.88877 2.34611 2.34681C2.88787 1.80486 3.6227 1.50027 4.389 1.5H11.611C12.3771 1.50027 13.1118 1.80473 13.6535 2.34646C14.1953 2.8882 14.4997 3.62287 14.5 4.389ZM11 8V11ZM11 5.993V6Z" fill="#1C0A00"/>
<path d="M11 8V11M11 5.993V6M14.5 4.389V11.611C14.4997 12.3771 14.1953 13.1118 13.6535 13.6535C13.1118 14.1953 12.3771 14.4997 11.611 14.5H4.39C3.6237 14.5 2.88877 14.1957 2.34681 13.6539C1.80486 13.1121 1.50027 12.3773 1.5 11.611V4.39C1.5 3.6237 1.80434 2.88877 2.34611 2.34681C2.88787 1.80486 3.6227 1.50027 4.389 1.5H11.611C12.3771 1.50027 13.1118 1.80473 13.6535 2.34646C14.1953 2.8882 14.4997 3.62287 14.5 4.389Z" stroke="#FF7F18" stroke-linecap="round" stroke-linejoin="round"/>
<path d="M4.5 11L5.344 8.75ZM9 11L8.156 8.75ZM5.344 8.75L6.75 5L8.156 8.75M5.344 8.75H8.156Z" fill="#1C0A00"/>
<path d="M4.5 11L5.344 8.75M5.344 8.75L6.75 5L8.156 8.75M5.344 8.75H8.156M9 11L8.156 8.75" stroke="#FF7F18" stroke-linecap="round" stroke-linejoin="round"/>
</svg>
