<svg width="57" height="57" viewBox="0 0 57 57" fill="none" xmlns="http://www.w3.org/2000/svg">
<g clip-path="url(#clip0_54_262)">
<path d="M43.6406 0H13.3594C5.9812 0 0 5.9812 0 13.3594V43.6406C0 51.0188 5.9812 57 13.3594 57H43.6406C51.0188 57 57 51.0188 57 43.6406V13.3594C57 5.9812 51.0188 0 43.6406 0Z" fill="#242938"/>
<path fill-rule="evenodd" clip-rule="evenodd" d="M18.4805 24.4922C19.8164 19.1484 23.1562 16.4766 28.5 16.4766C36.5156 16.4766 37.5176 22.4883 41.5254 23.4902C44.1973 24.1585 46.5352 23.1565 48.5391 20.4844C47.2031 25.8281 43.8633 28.5 38.5195 28.5C30.5039 28.5 29.502 22.4883 25.4941 21.4863C22.8223 20.8184 20.4844 21.8203 18.4805 24.4922ZM8.46094 36.5156C9.79688 31.1719 13.1367 28.5 18.4805 28.5C26.4961 28.5 27.498 34.5117 31.5059 35.5137C34.1777 36.1819 36.5156 35.18 38.5195 32.5078C37.1836 37.8516 33.8438 40.5234 28.5 40.5234C20.4844 40.5234 19.4824 34.5117 15.4746 33.5098C12.8027 32.8415 10.4648 33.8435 8.46094 36.5156Z" fill="url(#paint0_linear_54_262)"/>
</g>
<defs>
<linearGradient id="paint0_linear_54_262" x1="19.2598" y1="16.4766" x2="36.4043" y2="41.3027" gradientUnits="userSpaceOnUse">
<stop stop-color="#32B1C1"/>
<stop offset="1" stop-color="#14C6B7"/>
</linearGradient>
<clipPath id="clip0_54_262">
<rect width="57" height="57" fill="white"/>
</clipPath>
</defs>
</svg>
