<svg width="57" height="57" viewBox="0 0 57 57" fill="none" xmlns="http://www.w3.org/2000/svg">
<g clip-path="url(#clip0_173_275)">
<path d="M43.6406 0H13.3594C5.9812 0 0 5.9812 0 13.3594V43.6406C0 51.0188 5.9812 57 13.3594 57H43.6406C51.0188 57 57 51.0188 57 43.6406V13.3594C57 5.9812 51.0188 0 43.6406 0Z" fill="#0073AA"/>
<path d="M9.39844 28.4987C9.39844 36.059 13.7921 42.5926 20.1632 45.6889L11.0521 20.7255C9.96018 23.1714 9.39668 25.8201 9.39844 28.4987ZM41.3928 27.5348C41.3928 25.1744 40.5449 23.5397 39.8177 22.2672C38.8494 20.6939 37.9419 19.3615 37.9419 17.7882C37.9419 16.0324 39.2736 14.3981 41.1492 14.3981C41.2341 14.3981 41.3142 14.4086 41.3968 14.4132C37.9986 11.3 33.4714 9.39923 28.4986 9.39923C21.826 9.39923 15.9552 12.8228 12.5401 18.0085C12.9881 18.0218 13.4105 18.0314 13.7692 18.0314C15.7671 18.0314 18.8596 17.7887 18.8596 17.7887C19.8891 17.7281 20.0107 19.2404 18.982 19.3622C18.982 19.3622 17.9473 19.484 16.796 19.5443L23.7513 40.2331L27.9312 27.6969L24.9554 19.5437C23.927 19.4833 22.9526 19.3615 22.9526 19.3615C21.9233 19.3012 22.044 17.7275 23.0733 17.7882C23.0733 17.7882 26.2275 18.0305 28.1042 18.0305C30.1019 18.0305 33.1946 17.7882 33.1946 17.7882C34.2251 17.7275 34.346 19.2397 33.3171 19.3615C33.3171 19.3615 32.2802 19.4833 31.131 19.5437L38.0336 40.0757L39.9386 33.7095C40.7645 31.0675 41.3928 29.17 41.3928 27.5348Z" fill="white"/>
<path d="M28.8342 30.1695L23.1035 46.8219C24.8556 47.3379 26.6726 47.6 28.4991 47.6001C30.6594 47.6008 32.8041 47.2347 34.8417 46.5173C34.7887 46.4338 34.7433 46.3457 34.7059 46.2542L28.8342 30.1695ZM45.2587 19.335C45.3454 19.986 45.3884 20.6421 45.3874 21.2989C45.3874 23.2371 45.0254 25.416 43.935 28.1404L38.1007 45.0086C43.7792 41.6973 47.5986 35.5455 47.5986 28.4991C47.5988 25.1782 46.7507 22.0554 45.2587 19.335Z" fill="white"/>
<path d="M28.4996 6.23438C16.2227 6.23438 6.23438 16.2221 6.23438 28.4987C6.23438 40.7768 16.2227 50.7641 28.4996 50.7641C40.7757 50.7641 50.7656 40.7768 50.7656 28.4987C50.7652 16.2221 40.7757 6.23438 28.4996 6.23438ZM28.4996 49.7436C16.7856 49.7436 7.25525 40.2131 7.25525 28.4987C7.25525 16.7849 16.7854 7.25525 28.4996 7.25525C40.2128 7.25525 49.7425 16.7849 49.7425 28.4987C49.7425 40.2131 40.2128 49.7436 28.4996 49.7436Z" fill="white"/>
</g>
<defs>
<clipPath id="clip0_173_275">
<rect width="57" height="57" fill="white"/>
</clipPath>
</defs>
</svg>
