<svg width="57" height="57" viewBox="0 0 57 57" fill="none" xmlns="http://www.w3.org/2000/svg">
<g clip-path="url(#clip0_54_277)">
<path d="M43.6406 0H13.3594C5.9812 0 0 5.9812 0 13.3594V43.6406C0 51.0188 5.9812 57 13.3594 57H43.6406C51.0188 57 57 51.0188 57 43.6406V13.3594C57 5.9812 51.0188 0 43.6406 0Z" fill="#242938"/>
<path d="M10.6562 39.2302L12.291 40.1741L30.5027 8.63146L28.868 7.68762L10.6562 39.2302Z" fill="#E535AB"/>
<path d="M46.7064 36.7104H10.2832V38.5981H46.7064V36.7104Z" fill="#E535AB"/>
<path d="M11.0039 37.7707L29.2223 48.2895L30.1661 46.6547L11.9477 36.136L11.0039 37.7707ZM26.8303 10.3562L45.0487 20.8749L45.9926 19.2402L27.7742 8.72144L26.8303 10.3562Z" fill="#E535AB"/>
<path d="M11.0078 19.233L11.9519 20.8678L30.1703 10.349L29.2264 8.71429L11.0078 19.233Z" fill="#E535AB"/>
<path d="M26.5005 8.63195L44.712 40.1743L46.3467 39.2305L28.1352 7.68811L26.5005 8.63195ZM13.6142 17.9813H11.7266V39.0187H13.6142V17.9813Z" fill="#E535AB"/>
<path d="M45.2724 17.9813H43.3848V39.0187H45.2724V17.9813Z" fill="#E535AB"/>
<path d="M28.0762 46.0625L28.9007 47.4906L44.7458 38.3421L43.9213 36.9142L28.0762 46.0625Z" fill="#E535AB"/>
<path d="M47.7747 39.6328C46.683 41.5318 44.2494 42.18 42.3503 41.0883C40.4513 39.9966 39.8032 37.5632 40.8948 35.6642C41.9865 33.7652 44.4202 33.1168 46.3192 34.2085C48.2296 35.3115 48.8777 37.7338 47.7747 39.6328ZM16.0934 21.3358C15.0017 23.2348 12.5681 23.8832 10.669 22.7915C8.77 21.6999 8.12185 19.2662 9.21353 17.3672C10.3052 15.4679 12.7386 14.82 14.6379 15.9117C16.5369 17.0147 17.1851 19.4368 16.0934 21.3358ZM9.22489 39.6328C8.1332 37.7338 8.78136 35.3115 10.6804 34.2085C12.5796 33.1168 15.0017 33.7649 16.1047 35.6642C17.1964 37.5632 16.5483 39.9853 14.6492 41.0883C12.7388 42.18 10.3166 41.5318 9.22489 39.6328ZM40.9062 21.3358C39.8145 19.4368 40.4627 17.0147 42.3617 15.9117C44.261 14.82 46.683 15.4682 47.7861 17.3672C48.8777 19.2664 48.2296 21.6885 46.3306 22.7915C44.4315 23.8832 41.9979 23.2348 40.9062 21.3358ZM28.4998 50.7656C26.3051 50.7656 24.5312 48.9917 24.5312 46.797C24.5312 44.6023 26.3051 42.8282 28.4998 42.8282C30.6945 42.8282 32.4684 44.6023 32.4684 46.797C32.4684 48.9804 30.6945 50.7656 28.4998 50.7656ZM28.4998 14.1718C26.3051 14.1718 24.5312 12.3977 24.5312 10.203C24.5312 8.00828 26.3051 6.23438 28.4998 6.23438C30.6945 6.23438 32.4684 8.00828 32.4684 10.203C32.4684 12.3977 30.6945 14.1718 28.4998 14.1718Z" fill="#E535AB"/>
</g>
<defs>
<clipPath id="clip0_54_277">
<rect width="57" height="57" fill="white"/>
</clipPath>
</defs>
</svg>
