<svg width="69" height="69" viewBox="0 0 69 69" fill="none" xmlns="http://www.w3.org/2000/svg">
<path fill-rule="evenodd" clip-rule="evenodd" d="M34.5 0.8125C41.1628 0.8125 47.6759 2.78824 53.2158 6.48987C58.7557 10.1915 63.0735 15.4528 65.6232 21.6084C68.1729 27.7639 68.84 34.5374 67.5402 41.0721C66.2404 47.6068 63.0319 53.6094 58.3207 58.3207C53.6094 63.0319 47.6068 66.2404 41.0721 67.5402C34.5374 68.84 27.7639 68.1729 21.6084 65.6232C15.4528 63.0735 10.1915 58.7557 6.48987 53.2158C2.78824 47.6759 0.8125 41.1628 0.8125 34.5C0.8125 25.5655 4.36171 16.997 10.6793 10.6793C16.997 4.36171 25.5655 0.8125 34.5 0.8125Z" fill="#CC6699"/>
<path d="M55.6323 15.2307C54.1067 9.24879 44.1858 7.2901 34.7966 10.6155C28.9163 12.5911 23.4836 15.7074 18.8095 19.7858C13.6384 24.6223 12.8131 28.8333 13.1524 30.5922C14.3555 36.8004 22.8568 40.8573 26.3531 43.8675V43.8844C25.3232 44.3921 17.7772 48.2156 16.0062 52.1137C14.1437 56.2332 16.3021 59.1881 17.7339 59.5851C19.8834 60.1026 22.141 59.9342 24.19 59.1035C26.239 58.2728 27.9765 56.8214 29.1587 54.9531C30.1365 53.4397 30.7482 51.7192 30.9454 49.9283C31.1425 48.1373 30.9197 46.325 30.2945 44.6351C31.9782 44.2049 33.7292 44.1044 35.4511 44.3391C41.3608 45.0297 42.5206 48.7185 42.2993 50.2633C42.1951 50.8132 41.9738 51.3342 41.6504 51.791C41.3269 52.2477 40.9089 52.6294 40.4248 52.9102C40.0109 53.1677 39.8834 53.2543 39.9195 53.4468C39.97 53.7235 40.1601 53.7139 40.5138 53.6537C41.4019 53.374 42.1844 52.8319 42.7583 52.0986C43.3322 51.3654 43.6705 50.4755 43.7286 49.5463C43.8705 45.9369 40.4031 41.88 34.2624 41.9834C32.4788 41.9309 30.6988 42.1748 28.9951 42.7053L28.7352 42.4165C24.9382 38.3668 17.9216 35.501 18.2175 30.0556C18.3258 28.0753 19.014 22.8634 31.6925 16.5397C42.0875 11.3591 50.4083 12.786 51.8473 15.9454C53.9022 20.4595 47.4005 28.8453 36.6061 30.0556C35.413 30.2978 34.1807 30.2683 33.0006 29.9692C31.8205 29.6701 30.7229 29.1092 29.7892 28.3279C29.2213 27.7023 29.1371 27.6759 28.9253 27.7914C28.5812 27.9814 28.8002 28.5349 28.9253 28.8621C29.3388 29.607 29.8967 30.2618 30.5665 30.7882C31.2363 31.3146 32.0044 31.702 32.8259 31.9277C37.07 32.8486 41.4964 32.4108 45.4779 30.6764C52.0253 28.1523 57.1314 21.114 55.6323 15.2307ZM27.8064 45.7203C28.282 47.3682 28.2577 49.1201 27.7366 50.7542C27.6805 50.9242 27.6187 51.0927 27.5514 51.2595C27.484 51.4263 27.411 51.5868 27.3324 51.7408C26.9248 52.5678 26.4005 53.332 25.7756 54.0099C23.8193 56.1442 21.0834 56.9527 19.9115 56.2717C18.6458 55.5378 19.2787 52.5276 21.5478 50.1286C23.2919 48.4052 25.3019 46.9736 27.5008 45.8888L27.8064 45.7203Z" fill="white"/>
</svg>
