<svg width="47" height="59" viewBox="0 0 47 59" fill="none" xmlns="http://www.w3.org/2000/svg">
<path d="M14.7891 57.1375C17.2387 58.1216 19.8978 58.7078 22.7034 58.8125C26.4931 58.9382 30.0734 58.1635 33.2978 56.6769C29.4453 55.1694 25.9487 52.95 22.9756 50.1863C21.0332 53.2878 18.1818 55.7151 14.81 57.1375H14.7891Z" fill="#FF9100"/>
<path d="M22.9549 50.1863C16.1502 43.905 12.0255 34.7972 12.3815 24.81C12.3815 24.496 12.4024 24.161 12.4234 23.8469C9.4032 23.0763 6.23362 23.1124 3.2318 23.9516C1.41023 27.1341 0.321484 30.7772 0.174922 34.6925C-0.181016 44.7844 5.93273 53.5991 14.7893 57.1585C18.1707 55.7516 21.0263 53.3206 22.9549 50.2072V50.1863Z" fill="#FFC400"/>
<path d="M22.9552 50.1862C24.5874 47.5728 25.5043 44.5765 25.6143 41.4972C25.9074 33.0803 20.2543 25.8569 12.4236 23.8259C12.4236 24.14 12.3818 24.475 12.3818 24.7891C12.2066 29.5316 13.0611 34.2557 14.8864 38.6364C16.7117 43.0171 19.4644 46.9503 22.9552 50.1653V50.1862Z" fill="#FF9100"/>
<path d="M24.7351 0.1875C20.2754 3.74688 16.7579 8.45781 14.6223 13.8806C13.3739 17.0604 12.6321 20.4163 12.4238 23.8259C16.306 24.8294 19.7293 27.1278 22.1278 30.3411C24.5264 33.5543 25.7564 37.49 25.6145 41.4972C25.5174 44.5786 24.5995 47.5783 22.9554 50.1862C25.9642 52.9707 29.4644 55.1716 33.2776 56.6769C41.0245 53.0966 46.5101 45.4125 46.8241 36.3047C47.0335 30.4003 44.7723 25.145 41.5688 20.7063C38.177 16.0163 24.7351 0.208437 24.7351 0.208437V0.1875Z" fill="#DD2C00"/>
</svg>
