<svg width="57" height="57" viewBox="0 0 57 57" fill="none" xmlns="http://www.w3.org/2000/svg">
<g clip-path="url(#clip0_52_17428)">
<path d="M43.6406 0H13.3594C5.9812 0 0 5.9812 0 13.3594V43.6406C0 51.0188 5.9812 57 13.3594 57H43.6406C51.0188 57 57 51.0188 57 43.6406V13.3594C57 5.9812 51.0188 0 43.6406 0Z" fill="#F0DB4F"/>
<path d="M14.9866 47.6333L19.3484 44.9935C20.19 46.4855 20.9555 47.748 22.7918 47.748C24.5519 47.748 25.6616 47.0595 25.6616 44.3814V26.1686H31.0182V44.4571C31.0182 50.005 27.7661 52.5304 23.0213 52.5304C18.7363 52.5304 16.249 50.3112 14.9863 47.6328M33.9277 47.0593L38.2891 44.5341C39.4373 46.4091 40.9296 47.7865 43.5694 47.7865C45.789 47.7865 47.2042 46.6768 47.2042 45.1462C47.2042 43.3097 45.7503 42.6591 43.3015 41.5882L41.9627 41.0139C38.098 39.369 35.5344 37.3027 35.5344 32.9409C35.5344 28.9233 38.5955 25.8622 43.3783 25.8622C46.7836 25.8622 49.2324 27.0485 50.9923 30.1476L46.8217 32.826C45.9033 31.1808 44.9089 30.5304 43.3783 30.5304C41.8095 30.5304 40.8147 31.5252 40.8147 32.826C40.8147 34.4329 41.8095 35.0835 44.1051 36.0785L45.4441 36.6523C49.9972 38.6039 52.5609 40.5931 52.5609 45.0696C52.5609 49.891 48.7731 52.5308 43.6843 52.5308C38.7104 52.5308 35.4963 50.1587 33.9277 47.0593Z" fill="#323330"/>
</g>
<defs>
<clipPath id="clip0_52_17428">
<rect width="57" height="57" fill="white"/>
</clipPath>
</defs>
</svg>
