<svg width="67" height="67" viewBox="0 0 67 67" fill="none" xmlns="http://www.w3.org/2000/svg">
<g clip-path="url(#clip0_52_17421)">
<path d="M33.5 67C52.0015 67 67 52.0015 67 33.5C67 14.9985 52.0015 0 33.5 0C14.9985 0 0 14.9985 0 33.5C0 52.0015 14.9985 67 33.5 67Z" fill="black"/>
<path d="M55.6499 58.6323L25.7355 20.1H20.0996V46.889H24.6085V25.8259L52.1099 61.3589C53.3493 60.5298 54.5319 59.6189 55.6499 58.6323Z" fill="url(#paint0_linear_52_17421)"/>
<path d="M42.8066 20.1H47.2731V46.9H42.8066V20.1Z" fill="url(#paint1_linear_52_17421)"/>
</g>
<defs>
<linearGradient id="paint0_linear_52_17421" x1="40.5718" y1="43.3638" x2="53.7856" y2="59.7416" gradientUnits="userSpaceOnUse">
<stop stop-color="white"/>
<stop offset="1" stop-color="white" stop-opacity="0"/>
</linearGradient>
<linearGradient id="paint1_linear_52_17421" x1="45.0398" y1="20.0999" x2="44.965" y2="39.7812" gradientUnits="userSpaceOnUse">
<stop stop-color="white"/>
<stop offset="1" stop-color="white" stop-opacity="0"/>
</linearGradient>
<clipPath id="clip0_52_17421">
<rect width="67" height="67" fill="white"/>
</clipPath>
</defs>
</svg>
