<svg width="18" height="18" viewBox="0 0 18 18" fill="none" xmlns="http://www.w3.org/2000/svg">
<path d="M17.432 9.90445V15.8984C17.415 16.5954 17.077 16.9804 16.379 17.0384C15.578 17.1044 14.773 17.1464 13.969 17.1944C12.349 17.2944 10.7287 17.3924 9.10802 17.4884C7.67302 17.5734 6.23802 17.6484 4.80502 17.7454C4.17102 17.7864 3.67202 17.5864 3.32102 17.0424C3.21702 16.8814 3.08402 16.7364 2.96602 16.5824C2.36602 15.8084 1.77102 15.0324 1.16802 14.2624C0.762751 13.7655 0.547578 13.1405 0.561018 12.4994C0.581018 9.08944 0.569018 5.68145 0.571018 2.27245C0.571018 2.14378 0.581018 2.01578 0.601018 1.88845C0.693018 1.38845 1.00302 1.07845 1.50902 1.03045C2.33702 0.952446 3.17802 0.898445 4.01302 0.835445L8.00302 0.541445C9.28102 0.448445 10.559 0.359445 11.837 0.258445C12.4776 0.206503 13.1145 0.395502 13.623 0.788445C14.749 1.60545 15.893 2.39545 17.035 3.19245C17.1672 3.27725 17.2743 3.39588 17.3451 3.53602C17.416 3.67617 17.4481 3.83272 17.438 3.98945C17.427 5.96045 17.432 7.93245 17.432 9.90445ZM16.27 9.98145V4.87745C16.27 4.38545 16.097 4.21545 15.62 4.24345L11.47 4.47945L6.38002 4.77745C5.78202 4.81145 5.18402 4.84811 4.58602 4.88745C4.26902 4.90945 4.12502 5.04945 4.07802 5.36045C4.06602 5.45045 4.06102 5.54045 4.06302 5.63045V15.4904C4.06302 16.2574 4.26702 16.4494 5.03702 16.4044C5.80702 16.3594 6.57602 16.3094 7.35402 16.2644L15.593 15.7914C16.035 15.7664 16.236 15.5714 16.271 15.1324C16.277 15.0554 16.271 14.9784 16.271 14.8964L16.27 9.98145ZM15.023 3.06545L15.05 3.01445C14.9896 2.94027 14.9227 2.87166 14.85 2.80945C14.304 2.41045 13.752 2.01945 13.207 1.62645C12.85 1.35345 12.407 1.21645 11.958 1.24145C11.064 1.29545 10.172 1.36645 9.27802 1.43145L3.53402 1.84845C3.12202 1.87845 2.70502 1.91045 2.30302 1.95845C2.25804 1.96744 2.21571 1.98663 2.17931 2.01454C2.1429 2.04245 2.11338 2.07834 2.09302 2.11945C2.07602 2.16845 2.15702 2.27845 2.22002 2.32945C2.67002 2.69245 3.12802 3.04945 3.58202 3.40745C3.82702 3.61145 4.14002 3.71745 4.45802 3.70445C4.61302 3.69745 4.76802 3.70445 4.92202 3.69045L9.09002 3.43445L14.628 3.10845C14.76 3.09311 14.8917 3.07878 15.023 3.06545Z" fill="black"/>
<path d="M12.5271 11.6884V7.02837C12.2751 6.99837 12.0341 6.96337 11.7911 6.94537C11.6581 6.93537 11.6271 6.87538 11.6411 6.75838C11.6539 6.63146 11.7096 6.51272 11.7991 6.4218C11.8885 6.33087 12.0064 6.27322 12.1331 6.25838C12.9361 6.19838 13.7391 6.15738 14.5381 6.10938C14.6571 6.50638 14.5381 6.70137 14.1581 6.77637C13.7391 6.86337 13.7391 6.86337 13.7391 7.28837V14.1334C13.7391 14.2924 13.6971 14.3894 13.5471 14.4364C13.2827 14.5356 13.0134 14.6207 12.7401 14.6914C12.3011 14.7834 11.9121 14.6614 11.6511 14.2824C11.2876 13.7587 10.9326 13.2293 10.5861 12.6944C9.78205 11.4504 8.98805 10.2014 8.18905 8.95438C8.17305 8.92838 8.15105 8.90337 8.10605 8.84137C8.09605 8.92737 8.08705 8.97638 8.08705 9.02738V13.6874C8.08705 13.8244 8.13105 13.8804 8.26305 13.9054C8.55905 13.9634 8.85405 14.0344 9.14305 14.0994C9.13796 14.2445 9.08044 14.3828 8.98114 14.4887C8.88185 14.5946 8.74751 14.6609 8.60305 14.6754C8.3606 14.7081 8.1166 14.7282 7.87205 14.7354C7.28005 14.7714 6.68805 14.7994 6.09705 14.8414C5.92405 14.8534 5.88905 14.7814 5.91905 14.6404C5.92826 14.5558 5.96353 14.4763 6.01996 14.4127C6.0764 14.3491 6.15122 14.3046 6.23405 14.2854C6.42005 14.2404 6.60405 14.1814 6.78805 14.1294V7.43937L5.95905 7.36537C5.93137 7.27907 5.92388 7.18756 5.93715 7.09789C5.95042 7.00823 5.9841 6.92282 6.0356 6.84823C6.08709 6.77364 6.15503 6.71187 6.23417 6.66769C6.31331 6.6235 6.40153 6.59808 6.49205 6.59338C7.21705 6.53538 7.94705 6.51337 8.67005 6.43137C8.97905 6.39737 9.12305 6.51137 9.27805 6.75037C10.3011 8.32637 11.3381 9.89637 12.3711 11.4674L12.5271 11.6884Z" fill="black"/>
</svg>
