<svg width="83" height="67" viewBox="0 0 83 67" fill="none" xmlns="http://www.w3.org/2000/svg">
<g clip-path="url(#clip0_1764_8291)">
<path d="M9.83806 61.6922H4.86954V66.5856H0V48.5887H9.83806C13.9158 48.5887 16.0339 51.7064 16.0339 55.1397C16.0339 58.573 13.9158 61.6922 9.83806 61.6922ZM8.68996 57.7048C10.1746 57.7048 11.1643 56.6788 11.1643 55.1397C11.1643 53.6006 10.1746 52.5746 8.68996 52.5746H4.86954V57.7048H8.68996Z" fill="#FF6D00"/>
<path d="M23.0017 61.6922V66.5856H18.1321V48.5887H27.9702C32.0479 48.5887 34.166 51.7064 34.166 55.1397C34.166 57.3694 33.2752 59.4807 31.5333 60.6646L34.4827 66.5841H29.4746L26.9804 61.6906H23.0017V61.6922ZM26.8221 57.7048C28.3067 57.7048 29.2964 56.6788 29.2964 55.1397C29.2964 53.6006 28.3067 52.5746 26.8221 52.5746H23.0017V57.7048H26.8221Z" fill="#FF6D00"/>
<path d="M36.1851 66.5856V48.5887H41.0546V66.5841H36.1851V66.5856Z" fill="#FF6D00"/>
<path d="M43.9447 53.0481C43.9447 50.1278 45.3303 48.1941 48.0224 48.1941C50.2197 48.1941 52.0606 49.5161 52.5159 51.8642L54.3964 61.7696H54.5943L56.4748 51.8642C56.9301 49.5161 58.771 48.1941 60.9683 48.1941C63.6604 48.1941 65.046 50.1278 65.046 53.0481V66.6038H60.5724V53.423H60.414L58.5335 63.3284C58.0782 65.6764 56.6926 66.9985 54.4954 66.9985C52.2981 66.9985 50.9125 65.6764 50.4572 63.3284L48.5767 53.423H48.4183V66.6038H43.9447V53.0481Z" fill="#FF6D00"/>
<path d="M73.9933 62.5208H83V66.5856H72.291C69.678 66.5856 67.9361 64.8492 67.9361 62.2446V48.5902H83V52.655H72.8056V55.3977H82.802V59.3835H72.8056V61.3369C72.8056 62.0473 73.2807 62.5208 73.9933 62.5208Z" fill="#FF6D00"/>
<path d="M19.0336 16.8387H6.77747V20.6804H18.8082C18.8036 20.4846 18.8006 20.2888 18.8006 20.093C18.8006 18.9956 18.8798 17.9088 19.0336 16.8387Z" fill="#FF6D00"/>
<path d="M4.49344 22.8099V26.6516H19.769C19.3883 25.3963 19.1188 24.1138 18.9635 22.8099H4.49344Z" fill="#FF6D00"/>
<path d="M20.573 28.8796H6.77747V32.7213H22.6499C21.8475 31.5282 21.1592 30.2609 20.5928 28.9252C20.5867 28.91 20.5806 28.8948 20.573 28.8796Z" fill="#FF6D00"/>
<path d="M64.3121 20.6804H76.224V16.8387H64.0867C64.2405 17.9103 64.3197 18.9956 64.3197 20.093C64.3197 20.2888 64.3167 20.4846 64.3121 20.6804Z" fill="#FF6D00"/>
<path d="M78.5066 26.6516V22.8099H64.1568C64.0015 24.1138 63.7319 25.3963 63.3513 26.6516H78.5066Z" fill="#FF6D00"/>
<path d="M60.4704 32.7213H76.2225V28.8796H62.5458C62.5397 28.8948 62.5336 28.91 62.5275 28.9252C61.9611 30.2609 61.2728 31.5298 60.4704 32.7213Z" fill="#FF6D00"/>
<path d="M41.5601 5.26079C49.7781 5.26079 56.4398 11.9013 56.4398 20.093C56.4398 28.2847 49.7781 34.9252 41.5601 34.9252C33.3422 34.9252 26.6805 28.2847 26.6805 20.093C26.6805 11.9013 33.3422 5.26079 41.5601 5.26079ZM41.5601 0C38.8406 0 36.2003 0.53124 33.7122 1.58158C31.3109 2.59397 29.1564 4.04198 27.3063 5.88614C25.4562 7.7303 24.0036 9.87803 22.988 12.2716C21.9358 14.7518 21.4013 17.3837 21.4013 20.0945C21.4013 22.8054 21.9343 25.4373 22.988 27.9174C24.0036 30.311 25.4562 32.4588 27.3063 34.3029C29.1564 36.1471 31.3109 37.5951 33.7122 38.6075C36.2003 39.6563 38.8406 40.1891 41.5601 40.1891C44.2797 40.1891 46.92 39.6578 49.4081 38.6075C51.8093 37.5951 53.9639 36.1471 55.814 34.3029C57.664 32.4588 59.1167 30.311 60.1323 27.9174C61.1845 25.4373 61.7189 22.8054 61.7189 20.0945C61.7189 17.3837 61.186 14.7518 60.1323 12.2716C59.1167 9.87803 57.664 7.7303 55.814 5.88614C53.9639 4.04198 51.8093 2.59397 49.4081 1.58158C46.9185 0.53124 44.2781 0 41.5601 0Z" fill="#FF6D00"/>
<path d="M44.3071 24.1623H39.5182V28.8797H34.8238V11.5339H44.3071C48.2371 11.5339 50.279 14.5392 50.279 17.8481C50.279 21.1585 48.2371 24.1623 44.3071 24.1623ZM43.2001 20.3206C44.6314 20.3206 45.5846 19.331 45.5846 17.8481C45.5846 16.3652 44.6299 15.3756 43.2001 15.3756H39.5182V20.3206H43.2001Z" fill="#FF6D00"/>
</g>
<defs>
<clipPath id="clip0_1764_8291">
<rect width="83" height="67" fill="white"/>
</clipPath>
</defs>
</svg>
